<svg width="25" height="25" viewBox="0 0 25 25" fill="none" xmlns="http://www.w3.org/2000/svg">
<path d="M7.5 18.4722L12.5 13.4722L17.5 18.4722L18.4722 17.5L13.4722 12.5L18.4722 7.5L17.5 6.52778L12.5 11.5278L7.5 6.52778L6.52778 7.5L11.5278 12.5L6.52778 17.5L7.5 18.4722ZM12.5 25C10.7639 25 9.13796 24.6704 7.62222 24.0111C6.10556 23.3509 4.78611 22.4593 3.66389 21.3361C2.54074 20.2139 1.64907 18.8944 0.988889 17.3778C0.329629 15.862 0 14.2361 0 12.5C0 10.7639 0.329629 9.1375 0.988889 7.62083C1.64907 6.10509 2.54074 4.78565 3.66389 3.6625C4.78611 2.54028 6.10556 1.64907 7.62222 0.988889C9.13796 0.329629 10.7639 0 12.5 0C14.2361 0 15.8625 0.329629 17.3792 0.988889C18.8949 1.64907 20.2144 2.54028 21.3375 3.6625C22.4597 4.78565 23.3509 6.10509 24.0111 7.62083C24.6704 9.1375 25 10.7639 25 12.5C25 14.2361 24.6704 15.862 24.0111 17.3778C23.3509 18.8944 22.4597 20.2139 21.3375 21.3361C20.2144 22.4593 18.8949 23.3509 17.3792 24.0111C15.8625 24.6704 14.2361 25 12.5 25ZM12.5 23.6111C15.6019 23.6111 18.2292 22.5347 20.3819 20.3819C22.5347 18.2292 23.6111 15.6019 23.6111 12.5C23.6111 9.39815 22.5347 6.77083 20.3819 4.61806C18.2292 2.46528 15.6019 1.38889 12.5 1.38889C9.39815 1.38889 6.77083 2.46528 4.61806 4.61806C2.46528 6.77083 1.38889 9.39815 1.38889 12.5C1.38889 15.6019 2.46528 18.2292 4.61806 20.3819C6.77083 22.5347 9.39815 23.6111 12.5 23.6111Z" fill="#AC1B10"/>
</svg>
